<svg xmlns="http://www.w3.org/2000/svg" xmlns:xlink="http://www.w3.org/1999/xlink" viewBox="0,0,256,256" width="48px" height="48px" fill-rule="nonzero"><g fill="#6ae8ff" fill-rule="nonzero" stroke="none" stroke-width="1" stroke-linecap="butt" stroke-linejoin="miter" stroke-miterlimit="10" stroke-dasharray="" stroke-dashoffset="0" font-family="none" font-weight="none" font-size="none" text-anchor="none" style="mix-blend-mode: normal"><g transform="scale(5.33333,5.33333)"><path d="M20.5,6h-12c-1.378,0 -2.5,1.122 -2.5,2.5v12c0,1.378 1.122,2.5 2.5,2.5h12c1.378,0 2.5,-1.122 2.5,-2.5v-12c0,-1.378 -1.122,-2.5 -2.5,-2.5zM39.5,6h-12c-1.378,0 -2.5,1.122 -2.5,2.5v12c0,1.378 1.122,2.5 2.5,2.5h12c1.378,0 2.5,-1.122 2.5,-2.5v-12c0,-1.378 -1.122,-2.5 -2.5,-2.5zM20.5,25h-12c-1.378,0 -2.5,1.122 -2.5,2.5v12c0,1.378 1.122,2.5 2.5,2.5h12c1.378,0 2.5,-1.122 2.5,-2.5v-12c0,-1.378 -1.122,-2.5 -2.5,-2.5zM39.5,25h-12c-1.378,0 -2.5,1.122 -2.5,2.5v12c0,1.378 1.122,2.5 2.5,2.5h12c1.378,0 2.5,-1.122 2.5,-2.5v-12c0,-1.378 -1.122,-2.5 -2.5,-2.5z"></path></g></g></svg>